<?xml version="1.0" encoding="UTF-8"?>
<svg xmlns="http://www.w3.org/2000/svg" xmlns:xlink="http://www.w3.org/1999/xlink" width="64pt" height="64pt" viewBox="0 0 64 64" version="1.1">
<g id="surface1">
<path style=" stroke:none;fill-rule:nonzero;fill:rgb(0%,0%,0%);fill-opacity:1;" d="M 32.253906 62.90625 C 20.453125 62.90625 9.074219 56.394531 3.4375 45.144531 C -4.339844 29.605469 1.496094 10.894531 16.730469 2.546875 L 19.382812 1.09375 L 18.589844 4.011719 C 16.6875 11.035156 17.433594 18.488281 20.691406 24.992188 C 24.230469 32.0625 30.3125 37.328125 37.8125 39.824219 C 45.316406 42.320312 53.335938 41.742188 60.40625 38.207031 C 60.726562 38.042969 61.039062 37.875 61.351562 37.703125 L 64.003906 36.25 L 63.25 39.144531 C 60.851562 47.988281 54.785156 55.410156 46.609375 59.503906 C 41.996094 61.8125 37.089844 62.90625 32.253906 62.90625 Z M 15.441406 6.351562 C 3.332031 14.621094 -0.96875 30.589844 5.742188 43.992188 C 13.046875 58.582031 30.859375 64.507812 45.453125 57.203125 C 52.085938 53.882812 57.210938 48.179688 59.839844 41.304688 C 52.59375 44.425781 44.550781 44.78125 37 42.265625 C 28.84375 39.554688 22.238281 33.828125 18.390625 26.144531 C 15.3125 19.996094 14.296875 13.074219 15.441406 6.351562 Z M 15.441406 6.351562 "/>
</g>
</svg>
