<?xml version="1.0" encoding="UTF-8"?>
<svg xmlns="http://www.w3.org/2000/svg" xmlns:xlink="http://www.w3.org/1999/xlink" width="64pt" height="64pt" viewBox="0 0 64 64" version="1.1">
<g id="surface1">
<path style=" stroke:none;fill-rule:nonzero;fill:rgb(0%,0%,0%);fill-opacity:1;" d="M 17 31.972656 C 17 40.269531 23.714844 46.992188 32 46.992188 C 40.285156 46.992188 47 40.269531 47 31.972656 C 47 23.675781 40.285156 16.953125 32 16.953125 C 23.714844 16.953125 17 23.675781 17 31.972656 Z M 45 31.972656 C 45 39.152344 39.167969 44.992188 32 44.992188 C 24.832031 44.992188 19 39.152344 19 31.972656 C 19 24.792969 24.832031 18.953125 32 18.953125 C 39.167969 18.953125 45 24.792969 45 31.972656 Z M 45 31.972656 "/>
<path style=" stroke:none;fill-rule:nonzero;fill:rgb(0%,0%,0%);fill-opacity:1;" d="M 32.742188 11.769531 C 33.292969 11.769531 33.742188 11.320312 33.742188 10.769531 L 33.742188 1 C 33.742188 0.449219 33.292969 0 32.742188 0 C 32.1875 0 31.742188 0.449219 31.742188 1 L 31.742188 10.769531 C 31.742188 11.320312 32.1875 11.769531 32.742188 11.769531 Z M 32.742188 11.769531 "/>
<path style=" stroke:none;fill-rule:nonzero;fill:rgb(0%,0%,0%);fill-opacity:1;" d="M 48.644531 4.660156 C 48.164062 4.378906 47.550781 4.542969 47.277344 5.023438 L 42.394531 13.480469 C 42.117188 13.960938 42.28125 14.574219 42.757812 14.847656 C 42.917969 14.941406 43.089844 14.984375 43.257812 14.984375 C 43.605469 14.984375 43.941406 14.804688 44.125 14.484375 L 49.007812 6.027344 C 49.285156 5.546875 49.121094 4.933594 48.644531 4.660156 Z M 48.644531 4.660156 "/>
<path style=" stroke:none;fill-rule:nonzero;fill:rgb(0%,0%,0%);fill-opacity:1;" d="M 50.761719 23.027344 C 50.929688 23.027344 51.101562 22.984375 51.261719 22.894531 L 59.71875 18.011719 C 60.195312 17.734375 60.359375 17.121094 60.085938 16.644531 C 59.808594 16.164062 59.203125 16 58.71875 16.277344 L 50.261719 21.160156 C 49.78125 21.4375 49.617188 22.050781 49.894531 22.527344 C 50.078125 22.847656 50.414062 23.027344 50.761719 23.027344 Z M 50.761719 23.027344 "/>
<path style=" stroke:none;fill-rule:nonzero;fill:rgb(0%,0%,0%);fill-opacity:1;" d="M 11.769531 32.742188 C 11.769531 32.1875 11.320312 31.742188 10.769531 31.742188 L 1 31.742188 C 0.449219 31.742188 0 32.1875 0 32.742188 C 0 33.296875 0.449219 33.742188 1 33.742188 L 10.769531 33.742188 C 11.320312 33.742188 11.769531 33.296875 11.769531 32.742188 Z M 11.769531 32.742188 "/>
<path style=" stroke:none;fill-rule:nonzero;fill:rgb(0%,0%,0%);fill-opacity:1;" d="M 4.28125 18.011719 L 12.738281 22.894531 C 12.898438 22.984375 13.070312 23.027344 13.238281 23.027344 C 13.585938 23.027344 13.921875 22.847656 14.105469 22.527344 C 14.382812 22.050781 14.21875 21.4375 13.738281 21.160156 L 5.28125 16.277344 C 4.800781 16 4.191406 16.164062 3.914062 16.644531 C 3.640625 17.121094 3.804688 17.734375 4.28125 18.011719 Z M 4.28125 18.011719 "/>
<path style=" stroke:none;fill-rule:nonzero;fill:rgb(0%,0%,0%);fill-opacity:1;" d="M 20.742188 14.984375 C 20.910156 14.984375 21.082031 14.941406 21.238281 14.851562 C 21.71875 14.574219 21.882812 13.960938 21.605469 13.480469 L 16.722656 5.023438 C 16.445312 4.542969 15.835938 4.378906 15.355469 4.65625 C 14.878906 4.933594 14.714844 5.546875 14.992188 6.027344 L 19.875 14.484375 C 20.058594 14.804688 20.394531 14.984375 20.742188 14.984375 Z M 20.742188 14.984375 "/>
<path style=" stroke:none;fill-rule:nonzero;fill:rgb(0%,0%,0%);fill-opacity:1;" d="M 32.742188 52.230469 C 32.1875 52.230469 31.742188 52.679688 31.742188 53.234375 L 31.742188 63 C 31.742188 63.550781 32.1875 64 32.742188 64 C 33.292969 64 33.742188 63.550781 33.742188 63 L 33.742188 53.234375 C 33.742188 52.679688 33.292969 52.230469 32.742188 52.230469 Z M 32.742188 52.230469 "/>
<path style=" stroke:none;fill-rule:nonzero;fill:rgb(0%,0%,0%);fill-opacity:1;" d="M 22.527344 49.894531 C 22.046875 49.613281 21.4375 49.78125 21.160156 50.257812 L 16.277344 58.714844 C 16 59.195312 16.164062 59.808594 16.640625 60.085938 C 16.800781 60.175781 16.972656 60.21875 17.140625 60.21875 C 17.488281 60.21875 17.824219 60.039062 18.007812 59.71875 L 22.890625 51.261719 C 23.167969 50.78125 23.003906 50.171875 22.527344 49.894531 Z M 22.527344 49.894531 "/>
<path style=" stroke:none;fill-rule:nonzero;fill:rgb(0%,0%,0%);fill-opacity:1;" d="M 13.480469 42.390625 L 5.023438 47.277344 C 4.546875 47.550781 4.382812 48.164062 4.65625 48.644531 C 4.84375 48.964844 5.179688 49.144531 5.527344 49.144531 C 5.695312 49.144531 5.867188 49.101562 6.023438 49.011719 L 14.480469 44.128906 C 14.960938 43.851562 15.125 43.238281 14.847656 42.757812 C 14.574219 42.28125 13.964844 42.113281 13.480469 42.390625 Z M 13.480469 42.390625 "/>
<path style=" stroke:none;fill-rule:nonzero;fill:rgb(0%,0%,0%);fill-opacity:1;" d="M 63 31.742188 L 53.234375 31.742188 C 52.679688 31.742188 52.234375 32.1875 52.234375 32.742188 C 52.234375 33.296875 52.679688 33.742188 53.234375 33.742188 L 63 33.742188 C 63.550781 33.742188 64 33.296875 64 32.742188 C 64 32.1875 63.550781 31.742188 63 31.742188 Z M 63 31.742188 "/>
<path style=" stroke:none;fill-rule:nonzero;fill:rgb(0%,0%,0%);fill-opacity:1;" d="M 58.976562 47.277344 L 50.519531 42.390625 C 50.035156 42.117188 49.425781 42.28125 49.152344 42.757812 C 48.875 43.238281 49.039062 43.851562 49.519531 44.128906 L 57.976562 49.011719 C 58.132812 49.101562 58.304688 49.144531 58.472656 49.144531 C 58.820312 49.144531 59.15625 48.964844 59.34375 48.644531 C 59.617188 48.164062 59.453125 47.550781 58.976562 47.277344 Z M 58.976562 47.277344 "/>
<path style=" stroke:none;fill-rule:nonzero;fill:rgb(0%,0%,0%);fill-opacity:1;" d="M 42.839844 50.257812 C 42.5625 49.78125 41.953125 49.613281 41.472656 49.894531 C 40.992188 50.171875 40.832031 50.78125 41.105469 51.261719 L 45.992188 59.71875 C 46.175781 60.039062 46.511719 60.21875 46.855469 60.21875 C 47.027344 60.21875 47.199219 60.175781 47.355469 60.085938 C 47.835938 59.808594 48 59.195312 47.722656 58.714844 Z M 42.839844 50.257812 "/>
</g>
</svg>
